<svg id="Layer_1" data-name="Layer 1" xmlns="http://www.w3.org/2000/svg" viewBox="0 0 268.88 68.91"><defs><style>.cls-1{fill:#f6c617;}.cls-2{fill:#fff;}.cls-3,.cls-4,.cls-5{fill:none;stroke-miterlimit:10;}.cls-3{stroke:#f6c617;stroke-width:0.77px;}.cls-4,.cls-5{stroke:#fff;}.cls-4{stroke-width:1.07px;}.cls-5{stroke-width:0.84px;}</style></defs><title>logo</title><path class="cls-1" d="M79.73,49.92H83v6.36a12.23,12.23,0,0,1-6.72,2.16A8.47,8.47,0,0,1,67.43,50c0-4.78,3.88-8.4,9-8.4A10.42,10.42,0,0,1,83.12,44L81,46.68a6.91,6.91,0,0,0-4.54-1.85,5.17,5.17,0,1,0,0,10.34,7.45,7.45,0,0,0,3.24-.9Z"/><path class="cls-1" d="M100,41.71v3.1H91.16V48.4h8v3.1h-8v3.67h9.14v3.1H87.42V41.71Z"/><path class="cls-1" d="M121,50c0,4.78-3.83,8.45-8.9,8.45s-8.9-3.65-8.9-8.45,3.84-8.4,8.9-8.4S121,45.18,121,50Zm-14,0a5.15,5.15,0,0,0,5.11,5.18A5.16,5.16,0,1,0,107.07,50Z"/><path class="cls-1" d="M134.85,58.27l-2.63-4.73h-3.81v4.73h-3.74V41.71h7.2c4.33,0,6.79,2.08,6.79,5.75a5.48,5.48,0,0,1-3.1,5.35l3.53,5.46Zm-6.44-7.86h3.46c2.06,0,3.24-.94,3.24-2.84s-1.18-2.76-3.24-2.76h-3.46Z"/><path class="cls-1" d="M154.12,49.92h3.24v6.36a12.26,12.26,0,0,1-6.72,2.16A8.47,8.47,0,0,1,141.81,50c0-4.78,3.88-8.4,9-8.4A10.42,10.42,0,0,1,157.5,44l-2.11,2.68a6.91,6.91,0,0,0-4.54-1.85,5.17,5.17,0,1,0,0,10.34,7.49,7.49,0,0,0,3.25-.9Z"/><path class="cls-1" d="M165.55,41.71V58.27h-3.74V41.71Z"/><path class="cls-1" d="M181.33,55.05h-7.67l-1.3,3.22H168.5l7.2-16.56h3.86l7.07,16.56h-4Zm-1.21-3-2.6-6.44-2.63,6.44Z"/><polyline class="cls-2" points="24.4 57.83 22.97 53.83 35.03 53.83 33.5 58.23"/><path class="cls-3" d="M38.24,12.81l.93.81C44.23,17.9,47.83,26,47.86,35.1c0,10.91-5,20.21-12.08,23.74"/><path class="cls-3" d="M36.89,46.68a31.36,31.36,0,0,1,11,3.72"/><path class="cls-2" d="M73.64,18.35a6.68,6.68,0,0,0-.23-2.07c-.2-.57-.51-1-1-1-.8,0-1.06.86-1.06,2.09a4.84,4.84,0,0,0,.77,2.27c.46.8,1.07,1.63,1.67,2.52a34.83,34.83,0,0,1,2,3.21,7.27,7.27,0,0,1,.91,3.3,6.65,6.65,0,0,1-.89,3.7,4.52,4.52,0,0,1-7.13-.29,9,9,0,0,1-.78-4.24l3-.29A8,8,0,0,0,71.18,30c.2.68.54,1.14,1.2,1.14.92,0,1.26-1,1.26-2.32a5.19,5.19,0,0,0-.8-2.32c-.26-.4-.51-.83-.8-1.26-.6-.86-1.26-1.84-2-2.9a12.08,12.08,0,0,1-1.52-3.27,5.63,5.63,0,0,1-.26-1.69,5.87,5.87,0,0,1,.92-3.32,3.75,3.75,0,0,1,3.12-1.61,3.62,3.62,0,0,1,3.56,1.87,8.21,8.21,0,0,1,.77,3.72Z"/><path class="cls-2" d="M78.18,15.88V12.7h8.94v3.18H84.2V33.77H81.1V15.88Z"/><path class="cls-2" d="M97.47,12.7V29.44a5.72,5.72,0,0,1-.52,2.3,3.9,3.9,0,0,1-1.23,1.54,3.67,3.67,0,0,1-2.38.72,3.78,3.78,0,0,1-2.41-.72,3.9,3.9,0,0,1-1.2-1.54,5.72,5.72,0,0,1-.52-2.3V12.7h3.1V29.44a1.79,1.79,0,0,0,.43,1.32.78.78,0,0,0,.6.23.9.9,0,0,0,.92-.77,2,2,0,0,0,.11-.78V12.7Z"/><path class="cls-2" d="M100.65,33.77V12.7h2.44c2.87,0,4.42.57,5.25,2.18s.91,4.24.91,8.37-.11,6.74-.91,8.34-2.38,2.18-5.25,2.18Zm3.1-3.09c1.06,0,1.66-.12,2-1.15a9,9,0,0,0,.28-2.24c0-1,0-2.35,0-4.07s0-3.07,0-4.07a9.37,9.37,0,0,0-.28-2.23c-.32-1-.92-1.12-2-1.12Z"/><path class="cls-2" d="M112.24,12.7h7.08v3.18h-4v5.54h2.87V24.8h-2.87v5.79h4v3.18h-7.08Z"/><path class="cls-2" d="M125.23,22.79l-.26-1h-.17v12H122V12.7h2.75l3,11,.26,1h.17v-12H131V33.77h-2.75Z"/><path class="cls-2" d="M133.11,15.88V12.7h8.95v3.18h-2.93V33.77H136V15.88Z"/><path class="cls-2" d="M149.31,18.35a7,7,0,0,0-.23-2.07c-.2-.57-.52-1-1-1-.81,0-1.06.86-1.06,2.09a4.73,4.73,0,0,0,.77,2.27c.46.8,1.06,1.63,1.66,2.52a31,31,0,0,1,2,3.21,7.16,7.16,0,0,1,.92,3.3,6.65,6.65,0,0,1-.89,3.7,4.53,4.53,0,0,1-7.14-.29,9,9,0,0,1-.77-4.24l3-.29a8,8,0,0,0,.25,2.44c.2.68.55,1.14,1.21,1.14.92,0,1.26-1,1.26-2.32a5.19,5.19,0,0,0-.8-2.32c-.26-.4-.52-.83-.81-1.26-.6-.86-1.26-1.84-1.95-2.9a12,12,0,0,1-1.51-3.27A5.33,5.33,0,0,1,144,17.4a5.94,5.94,0,0,1,.91-3.32A3.77,3.77,0,0,1,148,12.47a3.61,3.61,0,0,1,3.55,1.87,8.09,8.09,0,0,1,.78,3.72Z"/><path class="cls-2" d="M167.63,15.88h-4.27v5.54h2.87V24.6h-2.87v9.17h-3.1V12.7h7.37Z"/><path class="cls-2" d="M177.87,29.44a5.72,5.72,0,0,1-.52,2.3,4,4,0,0,1-1.23,1.54,3.69,3.69,0,0,1-2.38.72,3.76,3.76,0,0,1-2.41-.72,3.81,3.81,0,0,1-1.2-1.54,5.72,5.72,0,0,1-.52-2.3V17a5.64,5.64,0,0,1,.52-2.26,3.86,3.86,0,0,1,1.2-1.58,4,4,0,0,1,2.41-.72,3.87,3.87,0,0,1,2.38.72,4,4,0,0,1,1.23,1.58,5.64,5.64,0,0,1,.52,2.26ZM174.77,17a1.91,1.91,0,0,0-.4-1.32.9.9,0,0,0-.63-.23,1,1,0,0,0-.92.78,2.08,2.08,0,0,0-.11.77V29.44a1.79,1.79,0,0,0,.43,1.32.78.78,0,0,0,.6.23.91.91,0,0,0,.92-.77,2.15,2.15,0,0,0,.11-.78Z"/><path class="cls-2" d="M186.41,33.77l-1.6-8.88H184v8.88h-3.09V12.7H184c3.7,0,5.28,2.09,5.28,6.08,0,2.09-.55,4-1.72,4.79l2,10.2ZM184,22a2.18,2.18,0,0,0,1.47-.46,3.38,3.38,0,0,0,.83-2.67,3.43,3.43,0,0,0-.83-2.69,2.14,2.14,0,0,0-1.47-.43Z"/><path class="cls-2" d="M197.48,12.7h3.1V30.91h4.09v2.86h-7.19Z"/><path class="cls-2" d="M206.85,12.7H210V33.77h-3.1Z"/><path class="cls-2" d="M213.16,33.77V12.7h2.73a6,6,0,0,1,4.21,1.23c1,.89,1.43,2.27,1.43,4.36a5.61,5.61,0,0,1-.4,2.44,5.91,5.91,0,0,1-1.52,1.92,4.27,4.27,0,0,1,1.81,2.58,8,8,0,0,1,.34,2.58,7.31,7.31,0,0,1-1,4.07A4.48,4.48,0,0,1,217,33.77Zm3.1-12.38a2.31,2.31,0,0,0,1.37-.32c.52-.34.92-1,.92-2.49s-.4-2.15-.92-2.5a2.36,2.36,0,0,0-1.37-.31Zm0,9.31a2.15,2.15,0,0,0,1.37-.31c.52-.37.92-1.2.92-2.92s-.4-2.56-.92-2.93a2.15,2.15,0,0,0-1.37-.31Z"/><path class="cls-2" d="M224.52,12.7h7.08v3.18h-4v5.54h2.87V24.8h-2.87v5.79h4v3.18h-7.08Z"/><path class="cls-2" d="M239.77,33.77l-1.61-8.88h-.83v8.88h-3.09V12.7h3.09c3.7,0,5.28,2.09,5.28,6.08,0,2.09-.55,4-1.72,4.79l2,10.2ZM237.33,22a2.14,2.14,0,0,0,1.46-.46,3.37,3.37,0,0,0,.84-2.67,3.42,3.42,0,0,0-.84-2.69,2.11,2.11,0,0,0-1.46-.43Z"/><path class="cls-2" d="M244.42,15.88V12.7h8.94v3.18h-2.92V33.77h-3.1V15.88Z"/><path class="cls-2" d="M259.12,19.44l.09.2h.06l.08-.2,1.55-6.74h3l-3.15,12.1v9h-3.1v-9l-3.15-12.1h3Z"/><path class="cls-3" d="M10.91,50.51a29,29,0,0,1,8.88-3.4"/><path class="cls-3" d="M48,19.75c-4.39,2.7-11.07,4.42-18.57,4.42s-14-1.67-18.38-4.31"/><line class="cls-3" x1="5.56" y1="35.13" x2="53.38" y2="35.13"/><path class="cls-1" d="M25.86,12.46A23,23,0,1,0,52.53,35.15,22.56,22.56,0,0,0,37.6,13.58a9.92,9.92,0,0,0-3-4c11,1.87,20.92,12.44,20.9,25.63A26.06,26.06,0,1,1,25.8,9.35,6.57,6.57,0,0,1,25.86,12.46Z"/><path class="cls-3" d="M22.86,58.73C16,55.08,11.09,45.89,11.09,35.14S15.93,15.28,22.77,11.6"/><path class="cls-2" d="M40.47,27.82c.05.64.16,1.28.16,1.94a11.67,11.67,0,1,1-21.34-6.52,30.09,30.09,0,0,1,3.24-4.34,20.61,20.61,0,0,0,2.67-4.19,13.44,13.44,0,0,1,.66,7.1S30,19.24,29,8.05c0,0,12.1,5.42,7.34,21.05,0,0,2.85-.67,3.14-5.62A20.88,20.88,0,0,1,40.47,27.82Z"/><path class="cls-2" d="M22.33,47.47a1.72,1.72,0,0,1,0-3.43H38.91a8.73,8.73,0,0,1,.4-1.24H20.6c-1,0-1.86,1.31-1.86,3s.83,3,1.86,3H39.31a9.48,9.48,0,0,1-.38-1.24Z"/><path class="cls-4" d="M38,43.59a2.65,2.65,0,0,0,0,4.3"/><path class="cls-2" d="M23.73,51.64a1.36,1.36,0,0,1,0-2.72H36.84a6.63,6.63,0,0,1,.32-1H22.36c-.81,0-1.47,1-1.47,2.34s.66,2.34,1.47,2.34h14.8a7.5,7.5,0,0,1-.31-1Z"/><path class="cls-5" d="M36.14,48.57a2.1,2.1,0,0,0,0,3.4"/></svg>